<svg width="161" height="161" viewBox="0 0 161 161" fill="none" xmlns="http://www.w3.org/2000/svg">
<path d="M161 0H0V161H161V0Z" fill="white"/>
<path d="M86.9375 117.444L86.3044 107.537H85.9878C81.1445 114.777 72.9773 119 62.0243 119C41.1948 119 26 102.806 26 80.5159C26 58.1938 41.1948 42 62.0243 42C72.8506 42 81.1445 46.0961 85.8295 53.1452H86.1461L86.9375 43.5559H104V117.412H86.9375V117.444ZM84.1201 80.5159C84.1201 68.5769 76.4277 60.2577 65.4748 60.2577C54.3636 60.2577 46.6713 68.5769 46.6713 80.5159C46.6713 92.4548 54.3636 100.774 65.4748 100.774C76.4594 100.806 84.1201 92.4548 84.1201 80.5159Z" fill="#100249"/>
<path d="M123.5 121C128.747 121 133 116.523 133 111C133 105.477 128.747 101 123.5 101C118.253 101 114 105.477 114 111C114 116.523 118.253 121 123.5 121Z" fill="#E31C79"/>
</svg>
