<svg width="2485" height="920" viewBox="0 0 2485 920" fill="none" xmlns="http://www.w3.org/2000/svg">
<path d="M305.232 549.522L302.01 500.103H300.399C276.052 536.272 235.235 557.4 180.275 557.4C76.0843 557.4 0 476.467 0 365.095C0 253.543 76.0843 172.789 180.454 172.789C234.698 172.789 276.231 193.201 299.683 228.475H301.294L305.232 180.667H390.805V549.522H305.232ZM291.09 365.095C291.09 305.469 252.6 263.749 197.64 263.749C141.964 263.749 103.475 305.29 103.475 365.095C103.475 424.72 141.964 466.44 197.64 466.44C252.779 466.261 291.09 424.72 291.09 365.095Z" fill="#201547"/>
<path d="M487.299 549.522H368.071L507.708 359.544L375.769 180.488H499.831L575.915 292.756L651.283 180.488H769.796L638.752 359.544L777.673 549.522H653.611L570.366 425.436L487.299 549.522Z" fill="#201547"/>
<path d="M870.404 65.8916C870.404 103.493 843.73 129.456 806.851 129.456C769.973 129.456 743.298 103.493 743.298 65.8916C743.298 29.0061 769.973 3.04297 806.851 3.04297C843.73 3.22202 870.404 29.0061 870.404 65.8916ZM754.935 180.487H857.693V549.342H754.935V180.487Z" fill="#201547"/>
<path d="M1244.74 365.095C1244.74 477.363 1163.1 557.401 1047.81 557.401C931.629 557.401 849.995 477.363 849.995 365.095C849.995 252.111 931.629 172.789 1047.81 172.789C1163.1 172.61 1244.74 251.932 1244.74 365.095ZM953.47 365.095C953.47 424.72 991.959 466.44 1047.64 466.44C1102.59 466.44 1141.08 424.899 1141.08 365.095C1141.08 305.469 1102.59 263.749 1047.64 263.749C991.959 263.749 953.47 305.29 953.47 365.095Z" fill="#201547"/>
<path d="M1586.13 330.537V549.522H1483.37V343.071C1483.37 292.04 1458.31 263.749 1415.17 263.749C1367.37 263.749 1339.08 295.979 1339.08 353.277V549.522H1236.32V180.667H1321.9L1325.84 233.31H1327.45C1349.47 194.813 1389.39 172.789 1442.74 172.789C1532.78 172.61 1586.13 230.803 1586.13 330.537Z" fill="#201547"/>
<path d="M1674.03 390.878C1684.95 441.193 1730.6 468.588 1794.16 468.588C1847.51 468.588 1892.98 452.832 1922.87 423.825H1926.81V522.663C1896.2 544.687 1846.79 557.221 1789.5 557.221C1659.17 557.221 1570.56 478.795 1570.56 364.915C1570.56 251.931 1650.58 172.609 1762.83 172.609C1877.4 172.609 1948.83 240.83 1948.83 349.158V390.699H1674.03V390.878ZM1674.03 328.925H1856.1C1849.12 284.161 1814.57 261.421 1765.87 261.421C1721.83 261.421 1684.24 285.773 1674.03 328.925Z" fill="#201547"/>
<path d="M2224.17 549.522L2221.12 500.103H2219.51C2195.17 536.272 2154.35 557.4 2099.39 557.4C1995.02 557.4 1918.94 476.467 1918.94 365.095C1918.94 253.543 1995.02 172.789 2099.39 172.789C2144.86 172.789 2180.31 186.934 2205.37 212.002H2206.98V0H2309.74V549.522H2224.17ZM2210.02 365.095C2210.02 305.469 2171.53 263.749 2116.58 263.749C2060.9 263.749 2022.41 305.29 2022.41 365.095C2022.41 424.72 2060.9 466.44 2116.58 466.44C2171.53 466.261 2210.02 424.72 2210.02 365.095Z" fill="#201547"/>
<path d="M2421.45 549.343C2456.55 549.343 2485 520.804 2485 485.599C2485 450.395 2456.55 421.855 2421.45 421.855C2386.35 421.855 2357.89 450.395 2357.89 485.599C2357.89 520.804 2386.35 549.343 2421.45 549.343Z" fill="#E31C79"/>
<path d="M70.2163 865.751C81.8533 865.751 89.7427 863.581 98.0267 859.438V803.215H114.989V870.683C101.577 878.376 87.7704 882.914 70.0191 882.914C32.5441 882.914 0 853.914 0 809.33C0 764.549 32.1496 735.353 70.4135 735.353C85.4035 735.353 99.999 739.101 111.242 745.611V764.549C98.6184 756.658 85.4035 752.713 71.2025 752.713C41.6169 752.713 18.1458 775.794 18.1458 809.33C18.1458 842.472 41.2225 865.751 70.2163 865.751Z" fill="#201547"/>
<path d="M143.392 776.583H157.396L159.368 792.957H159.566C166.666 779.542 180.078 775.399 189.151 775.399C191.715 775.399 193.885 775.597 196.054 775.991V792.759C193.688 792.365 191.321 791.97 188.757 791.97C174.95 791.97 161.143 800.848 161.143 820.97V879.757H143.392V776.583Z" fill="#201547"/>
<path d="M203.942 828.268C203.942 797.099 226.032 774.215 255.421 774.215C284.612 774.215 306.505 797.099 306.505 828.268C306.505 859.24 284.612 882.124 255.421 882.124C226.032 882.124 203.942 859.438 203.942 828.268ZM289.148 828.268C289.148 804.398 272.778 790.589 255.618 790.589C238.261 790.589 221.89 804.398 221.89 828.268C221.89 852.139 238.261 865.751 255.618 865.751C272.778 865.751 289.148 851.941 289.148 828.268Z" fill="#201547"/>
<path d="M394.668 798.874H394.076L367.844 879.757H347.726L318.535 776.583H336.878L358.377 860.227H358.771L385.003 776.583H403.346L429.579 860.227H430.171L452.064 776.583H469.421L440.427 879.757H420.309L394.668 798.874Z" fill="#201547"/>
<path d="M482.638 861.411V852.731H499.206V860.622C499.206 875.023 492.894 892.975 487.766 905.009H474.551C478.496 892.186 482.638 877.193 482.638 861.411Z" fill="#201547"/>
<path d="M579.876 776.583H593.88L595.852 792.957H596.049C603.15 779.542 616.562 775.399 625.635 775.399C628.199 775.399 630.369 775.597 632.538 775.991V792.759C630.171 792.365 627.805 791.97 625.24 791.97C611.434 791.97 597.627 800.848 597.627 820.97V879.757H580.073V776.583H579.876Z" fill="#201547"/>
<path d="M734.314 833.989H657.786C660.35 854.506 674.748 866.737 694.274 866.737C706.109 866.737 718.337 862.397 728.988 853.125V870.485C718.535 878.179 706.306 881.927 692.894 881.927C660.744 881.927 640.626 860.424 640.626 828.466C640.626 795.126 663.703 774.018 690.527 774.018C714.984 774.018 734.905 791.97 734.905 825.901C734.905 829.255 734.708 831.622 734.314 833.989ZM717.943 820.772C717.548 799.466 704.333 789.406 690.33 789.406C674.551 789.406 660.35 801.439 657.983 820.772H717.943Z" fill="#201547"/>
<path d="M822.674 783.29V800.651C815.179 794.338 803.937 789.998 791.708 789.998C778.69 789.998 771.392 795.521 771.392 804.004C771.392 813.079 780.465 816.63 794.272 820.575C810.051 825.112 827.999 830.242 827.999 851.153C827.999 870.091 813.207 882.322 789.538 882.322C776.126 882.322 763.306 878.574 753.838 870.88V851.942C761.925 860.227 774.154 866.54 788.947 866.54C802.95 866.54 810.84 860.425 810.84 851.35C810.84 841.486 801.175 838.133 786.185 833.595C769.223 828.466 754.036 822.943 754.036 804.793C754.036 787.433 768.434 774.413 791.313 774.413C803.542 774.216 815.573 777.767 822.674 783.29Z" fill="#201547"/>
<path d="M852.458 776.583H866.856L869.026 795.718C876.915 781.712 890.919 774.413 905.712 774.413C930.169 774.413 952.654 795.324 952.654 828.268C952.654 861.41 930.367 882.322 905.909 882.322C891.511 882.322 877.113 874.628 870.209 862.002V920.001H852.655V776.583H852.458ZM934.903 828.071C934.903 805.976 920.505 790.589 902.162 790.589C884.016 790.589 869.815 805.779 869.815 828.268C869.815 850.363 884.213 865.75 902.162 865.75C920.505 865.75 934.903 850.56 934.903 828.071Z" fill="#201547"/>
<path d="M970.601 828.268C970.601 797.099 992.691 774.215 1022.08 774.215C1051.27 774.215 1073.16 797.099 1073.16 828.268C1073.16 859.24 1051.27 882.124 1022.08 882.124C992.691 882.124 970.601 859.438 970.601 828.268ZM1055.61 828.268C1055.61 804.398 1039.24 790.589 1022.08 790.589C1004.72 790.589 988.352 804.398 988.352 828.268C988.352 852.139 1004.72 865.751 1022.08 865.751C1039.24 865.751 1055.61 851.941 1055.61 828.268Z" fill="#201547"/>
<path d="M1182.43 811.5V879.756H1164.88V817.812C1164.88 799.663 1156.59 791.18 1141.21 791.18C1126.42 791.18 1115.37 801.833 1115.37 817.023V879.954H1097.82V776.779H1111.43L1113.4 792.364H1113.99C1119.91 782.895 1130.95 774.412 1145.75 774.412C1168.03 774.215 1182.43 788.813 1182.43 811.5Z" fill="#201547"/>
<path d="M1276.12 783.29V800.651C1268.63 794.338 1257.39 789.998 1245.16 789.998C1232.14 789.998 1224.84 795.521 1224.84 804.004C1224.84 813.079 1233.91 816.63 1247.72 820.575C1263.5 825.112 1281.45 830.242 1281.45 851.153C1281.45 870.091 1266.66 882.322 1242.99 882.322C1229.57 882.322 1216.75 878.574 1207.29 870.88V851.942C1215.37 860.227 1227.6 866.54 1242.4 866.54C1256.4 866.54 1264.29 860.425 1264.29 851.35C1264.29 841.486 1254.62 838.133 1239.63 833.595C1222.67 828.466 1207.48 822.943 1207.48 804.793C1207.48 787.433 1221.88 774.413 1244.76 774.413C1256.79 774.216 1268.83 777.767 1276.12 783.29Z" fill="#201547"/>
<path d="M1303.93 742.257C1303.93 736.142 1308.47 731.604 1314.78 731.604C1321.09 731.604 1325.63 736.142 1325.63 742.257C1325.63 748.373 1321.09 752.91 1314.78 752.91C1308.47 752.91 1303.93 748.373 1303.93 742.257ZM1306.1 776.583H1323.66V879.757H1306.1V776.583Z" fill="#201547"/>
<path d="M1372.77 794.732C1379.87 781.515 1394.27 774.215 1408.66 774.215C1432.92 774.215 1455.21 794.929 1455.21 828.268C1455.21 861.016 1432.53 882.124 1408.27 882.124C1393.48 882.124 1379.47 874.825 1371.58 861.016L1369.41 879.954H1355.02V727.264H1372.57V794.732H1372.77ZM1372.37 828.071C1372.37 850.363 1386.77 865.751 1404.72 865.751C1423.26 865.751 1437.46 850.56 1437.46 828.268C1437.46 805.976 1423.06 790.589 1404.72 790.589C1386.57 790.589 1372.37 805.977 1372.37 828.071Z" fill="#201547"/>
<path d="M1480.46 727.066H1498.01V879.757H1480.46V727.066Z" fill="#201547"/>
<path d="M1556.59 919.804H1538.64L1556.39 876.206L1517.93 776.583H1537.06L1565.47 855.295H1565.86L1594.26 776.583H1612.61L1556.59 919.804Z" fill="#201547"/>
</svg>
