<svg width="2485" height="920" viewBox="0 0 2485 920" fill="none" xmlns="http://www.w3.org/2000/svg">
<g clip-path="url(#clip0_417_2)">
<path d="M305.15 549.505L301.929 500.087H300.318C275.977 536.256 235.171 557.383 180.226 557.383C76.0638 557.383 0 476.453 0 365.084C0 253.535 76.0638 172.784 180.405 172.784C234.634 172.784 276.156 193.195 299.602 228.468H301.213L305.15 180.662H390.7V549.505H305.15V549.505ZM291.011 365.084C291.011 305.46 252.532 263.741 197.587 263.741C141.926 263.741 103.447 305.281 103.447 365.084C103.447 424.707 141.926 466.426 197.587 466.426C252.711 466.247 291.011 424.707 291.011 365.084Z" fill="white"/>
<path d="M487.167 549.504H367.971L507.57 359.532L375.667 180.481H499.695L575.759 292.746L651.107 180.481H769.588L638.579 359.532L777.462 549.504H653.434L570.211 425.422L487.167 549.504Z" fill="white"/>
<path d="M870.17 65.8901C870.17 103.491 843.503 129.453 806.634 129.453C769.766 129.453 743.099 103.491 743.099 65.8901C743.099 29.0058 769.766 3.04346 806.634 3.04346C843.503 3.22251 870.17 29.0058 870.17 65.8901ZM754.732 180.482H857.463V549.325H754.732V180.482Z" fill="white"/>
<path d="M1244.4 365.082C1244.4 477.347 1162.79 557.382 1047.53 557.382C931.38 557.382 849.768 477.347 849.768 365.082C849.768 252.102 931.38 172.783 1047.53 172.783C1162.79 172.603 1244.4 251.923 1244.4 365.082ZM953.214 365.082C953.214 424.706 991.694 466.425 1047.35 466.425C1102.3 466.425 1140.78 424.885 1140.78 365.082C1140.78 305.459 1102.3 263.74 1047.35 263.74C991.694 263.74 953.214 305.28 953.214 365.082Z" fill="white"/>
<path d="M1585.71 330.526V549.504H1482.97V343.059C1482.97 292.03 1457.92 263.74 1414.79 263.74C1367 263.74 1338.72 295.969 1338.72 353.265V549.504H1235.99V180.661H1321.54L1325.48 233.302H1327.09C1349.1 194.806 1389.01 172.783 1442.35 172.783C1532.37 172.604 1585.71 230.795 1585.71 330.526Z" fill="white"/>
<path d="M1673.58 390.866C1684.5 441.18 1730.14 468.574 1793.67 468.574C1847.01 468.574 1892.47 452.818 1922.35 423.812H1926.29V522.647C1895.69 544.67 1846.29 557.204 1789.02 557.204C1658.73 557.204 1570.13 478.78 1570.13 364.904C1570.13 251.924 1650.14 172.604 1762.35 172.604C1876.9 172.604 1948.31 240.823 1948.31 349.148V390.687H1673.58V390.866ZM1673.58 328.915H1855.6C1848.62 284.153 1814.08 261.413 1765.39 261.413C1721.37 261.413 1683.78 285.764 1673.58 328.915Z" fill="white"/>
<path d="M2223.57 549.505L2220.53 500.087H2218.92C2194.57 536.255 2153.77 557.383 2098.82 557.383C1994.48 557.383 1918.42 476.452 1918.42 365.083C1918.42 253.535 1994.48 172.783 2098.82 172.783C2144.28 172.783 2179.72 186.928 2204.78 211.995H2206.39V0H2309.12V549.505H2223.57ZM2209.43 365.083C2209.43 305.459 2170.95 263.741 2116.01 263.741C2060.34 263.741 2021.87 305.28 2021.87 365.083C2021.87 424.707 2060.34 466.425 2116.01 466.425C2170.95 466.246 2209.43 424.707 2209.43 365.083Z" fill="white"/>
<path d="M2420.8 549.326C2455.89 549.326 2484.33 520.787 2484.33 485.584C2484.33 450.38 2455.89 421.842 2420.8 421.842C2385.71 421.842 2357.26 450.38 2357.26 485.584C2357.26 520.787 2385.71 549.326 2420.8 549.326Z" fill="#E31C79"/>
<path d="M70.1974 865.721C81.8312 865.721 89.7186 863.552 98.0003 859.409V803.188H114.958V870.653C101.55 878.347 87.7468 882.884 70.0002 882.884C32.5353 882.884 0 853.885 0 809.303C0 764.523 32.1409 735.327 70.3945 735.327C85.3805 735.327 99.9721 739.076 111.212 745.585V764.523C98.5918 756.632 85.3805 752.687 71.1833 752.687C41.6057 752.687 18.1409 775.767 18.1409 809.303C18.1409 842.444 41.2114 865.721 70.1974 865.721Z" fill="white"/>
<path d="M143.352 776.557H157.352L159.324 792.931H159.521C166.62 779.516 180.028 775.374 189.099 775.374C191.662 775.374 193.831 775.571 196 775.966V792.733C193.634 792.339 191.268 791.944 188.704 791.944C174.901 791.944 161.099 800.821 161.099 820.943V879.728H143.352V776.557Z" fill="white"/>
<path d="M203.887 828.241C203.887 797.072 225.971 774.189 255.352 774.189C284.535 774.189 306.422 797.072 306.422 828.241C306.422 859.212 284.535 882.095 255.352 882.095C225.971 882.095 203.887 859.409 203.887 828.241ZM289.07 828.241C289.07 804.371 272.704 790.562 255.549 790.562C238.197 790.562 221.83 804.371 221.83 828.241C221.83 852.11 238.197 865.722 255.549 865.722C272.704 865.722 289.07 851.913 289.07 828.241Z" fill="white"/>
<path d="M394.563 798.848H393.972L367.746 879.728H347.633L318.45 776.557H336.788L358.281 860.198H358.676L384.901 776.557H403.239L429.465 860.198H430.056L451.944 776.557H469.296L440.31 879.728H420.197L394.563 798.848Z" fill="white"/>
<path d="M482.508 861.381V852.702H499.072V860.592C499.072 874.993 492.762 892.944 487.635 904.978H474.424C478.368 892.155 482.508 877.163 482.508 861.381Z" fill="white"/>
<path d="M579.721 776.557H593.721L595.693 792.931H595.89C602.989 779.516 616.397 775.374 625.468 775.374C628.031 775.374 630.2 775.571 632.369 775.966V792.733C630.003 792.339 627.637 791.944 625.073 791.944C611.271 791.944 597.468 800.821 597.468 820.943V879.728H579.918V776.557H579.721Z" fill="white"/>
<path d="M734.115 833.962H657.607C660.171 854.478 674.565 866.708 694.086 866.708C705.917 866.708 718.143 862.368 728.79 853.097V870.456C718.34 878.15 706.114 881.898 692.706 881.898C660.565 881.898 640.452 860.396 640.452 828.438C640.452 795.1 663.523 773.992 690.34 773.992C714.79 773.992 734.706 791.944 734.706 825.874C734.706 829.227 734.509 831.594 734.115 833.962ZM717.748 820.745C717.354 799.44 704.143 789.379 690.142 789.379C674.368 789.379 660.171 801.412 657.804 820.745H717.748Z" fill="white"/>
<path d="M822.452 783.264V800.624C814.959 794.312 803.72 789.972 791.494 789.972C778.48 789.972 771.185 795.495 771.185 803.978C771.185 813.052 780.255 816.603 794.058 820.548C809.833 825.085 827.776 830.214 827.776 851.125C827.776 870.062 812.988 882.293 789.325 882.293C775.917 882.293 763.1 878.545 753.635 870.851V851.914C761.72 860.199 773.945 866.512 788.734 866.512C802.734 866.512 810.621 860.396 810.621 851.322C810.621 841.459 800.959 838.105 785.973 833.568C769.016 828.439 753.832 822.915 753.832 804.767C753.832 787.407 768.227 774.387 791.1 774.387C803.326 774.19 815.354 777.741 822.452 783.264Z" fill="white"/>
<path d="M852.228 776.556H866.623L868.791 795.691C876.679 781.685 890.679 774.386 905.468 774.386C929.918 774.386 952.397 795.296 952.397 828.24C952.397 861.381 930.116 882.292 905.665 882.292C891.27 882.292 876.876 874.598 869.975 861.973V919.97H852.425V776.556H852.228ZM934.651 828.043C934.651 805.949 920.256 790.562 901.918 790.562C883.777 790.562 869.58 805.752 869.58 828.24C869.58 850.334 883.975 865.721 901.918 865.721C920.256 865.721 934.651 850.531 934.651 828.043Z" fill="white"/>
<path d="M970.341 828.241C970.341 797.072 992.425 774.189 1021.81 774.189C1050.99 774.189 1072.88 797.072 1072.88 828.241C1072.88 859.212 1050.99 882.095 1021.81 882.095C992.425 882.095 970.341 859.409 970.341 828.241ZM1055.33 828.241C1055.33 804.371 1038.96 790.562 1021.81 790.562C1004.45 790.562 988.087 804.371 988.087 828.241C988.087 852.11 1004.45 865.722 1021.81 865.722C1038.96 865.722 1055.33 851.913 1055.33 828.241Z" fill="white"/>
<path d="M1182.12 811.473V879.727H1164.57V817.785C1164.57 799.637 1156.28 791.154 1140.9 791.154C1126.12 791.154 1115.07 801.807 1115.07 816.996V879.925H1097.52V776.754H1111.13L1113.1 792.338H1113.69C1119.61 782.869 1130.65 774.386 1145.44 774.386C1167.72 774.189 1182.12 788.787 1182.12 811.473Z" fill="white"/>
<path d="M1275.78 783.264V800.624C1268.29 794.312 1257.05 789.972 1244.82 789.972C1231.81 789.972 1224.51 795.495 1224.51 803.978C1224.51 813.052 1233.58 816.603 1247.38 820.548C1263.16 825.085 1281.1 830.214 1281.1 851.125C1281.1 870.062 1266.31 882.293 1242.65 882.293C1229.24 882.293 1216.43 878.545 1206.96 870.851V851.914C1215.05 860.199 1227.27 866.512 1242.06 866.512C1256.06 866.512 1263.95 860.396 1263.95 851.322C1263.95 841.459 1254.29 838.105 1239.3 833.568C1222.34 828.439 1207.16 822.915 1207.16 804.767C1207.16 787.407 1221.55 774.387 1244.43 774.387C1256.45 774.19 1268.48 777.741 1275.78 783.264Z" fill="white"/>
<path d="M1303.58 742.233C1303.58 736.118 1308.12 731.58 1314.43 731.58C1320.74 731.58 1325.27 736.118 1325.27 742.233C1325.27 748.348 1320.74 752.885 1314.43 752.885C1308.12 752.885 1303.58 748.348 1303.58 742.233ZM1305.75 776.557H1323.3V879.728H1305.75V776.557Z" fill="white"/>
<path d="M1372.4 794.705C1379.49 781.488 1393.89 774.189 1408.28 774.189C1432.54 774.189 1454.82 794.902 1454.82 828.24C1454.82 860.987 1432.14 882.094 1407.89 882.094C1393.1 882.094 1379.1 874.795 1371.21 860.987L1369.04 879.924H1354.65V727.239H1372.2V794.705H1372.4ZM1372 828.043C1372 850.334 1386.4 865.721 1404.34 865.721C1422.88 865.721 1437.07 850.531 1437.07 828.24C1437.07 805.949 1422.68 790.562 1404.34 790.562C1386.2 790.562 1372 805.949 1372 828.043Z" fill="white"/>
<path d="M1480.06 727.042H1497.61V879.728H1480.06V727.042Z" fill="white"/>
<path d="M1556.17 919.773H1538.23L1555.98 876.177L1517.52 776.557H1536.65L1565.05 855.267H1565.44L1593.84 776.557H1612.17L1556.17 919.773Z" fill="white"/>
</g>
<defs>
<clipPath id="clip0_417_2">
<rect width="2485" height="919.971" fill="white"/>
</clipPath>
</defs>
</svg>
