<?xml version="1.0" encoding="utf-8"?>
<svg 
    version="1.1" 
    id="Layer_1" 
    xmlns="http://www.w3.org/2000/svg" 
    xmlns:xlink="http://www.w3.org/1999/xlink" 
    x="0px" 
    y="0px" 
    width="20px" 
    height="20px" 
    viewBox="0 0 122.88 85.48" 
    style="enable-background:new 0 0 122.88 85.48" 
    xml:space="preserve">
    <style type="text/css">
        <![CDATA[
        .st0{fill:#128807;}
        .st1{fill:#FF9933;}
        .st2{fill:#FFFFFF;}
        .st3{fill:#000088;}
        ]]>
    </style>
    <g>
        <path class="st1" d="M6.71,0h109.46c3.7,0.02,6.71,3.05,6.71,6.75v71.98c0,3.71-3.04,6.75-6.75,6.75l-109.42,0 C3.02,85.46,0,82.43,0,78.73V6.75C0,3.05,3.01,0.02,6.71,0L6.71,0z"/>
        <polygon class="st2" points="0,28.49 122.88,28.49 122.88,56.99 0,56.99 0,28.49"/>
        <path class="st0" d="M0,56.99h122.88v21.74c0,3.71-3.04,6.75-6.75,6.75l-109.42,0C3.02,85.46,0,82.43,0,78.73V56.99L0,56.99z"/>
        <path class="st3" d="M72.84,42.74c0-6.3-5.1-11.4-11.4-11.4s-11.4,5.1-11.4,11.4c0,6.29,5.1,11.4,11.4,11.4 S72.84,49.04,72.84,42.74L72.84,42.74z"/>
        <path class="st2" d="M71.41,42.74c0-5.51-4.46-9.97-9.97-9.97s-9.97,4.46-9.97,9.97c0,5.51,4.46,9.97,9.97,9.97 S71.41,48.25,71.41,42.74L71.41,42.74z"/>
        <path class="st3" d="M63.43,42.74c0-1.1-0.89-2-1.99-2s-1.99,0.89-1.99,2c0,1.1,0.89,1.99,1.99,1.99S63.43,43.84,63.43,42.74 L63.43,42.74z"/>
        <!-- Rest of your SVG content -->
    </g>
</svg>
